<svg width="24" height="24" viewBox="0 0 24 24" fill="none" xmlns="http://www.w3.org/2000/svg">
<path fill-rule="evenodd" clip-rule="evenodd" d="M7.30282 2.00001C8.27021 1.99626 9.00576 2.79433 8.93982 3.69802C8.83604 5.12012 8.94652 6.14614 9.24402 7.41794C9.40743 8.11654 9.03774 8.82607 8.45024 9.28308C7.76118 9.81909 7.21363 10.483 6.76627 11.0915C8.08761 13.8092 9.67594 15.3911 12.4529 16.837C13.1052 16.5087 13.8045 16.1031 14.4035 15.5733C14.9587 15.0821 15.7554 14.8238 16.4765 15.0597C17.7891 15.4892 18.8637 15.7153 20.384 15.7899C21.35 15.8372 22.1077 16.6169 21.9874 17.5157L21.5889 20.4929C21.5268 20.9564 21.2411 21.378 20.7777 21.551C18.026 22.5779 14.3517 21.6716 12.1676 20.5542C7.27858 18.2336 4.58164 14.492 3.14736 11.2841C3.13231 11.2596 3.11835 11.2344 3.10553 11.2086C2.06316 9.11188 1.35676 5.24903 2.87891 2.63921C3.118 2.22927 3.59942 2.01437 4.09826 2.01244L7.30282 2.00001Z" fill="white"/>
</svg>
