<svg width="48" height="48" viewBox="0 0 48 48" fill="none" xmlns="http://www.w3.org/2000/svg">
<g clip-path="url(#clip0_50_3098)">
<path d="M38.5 8H33.5V5.5C33.5 4.68 32.82 4 32 4C31.18 4 30.5 4.68 30.5 5.5V8H17.5V5.5C17.5 4.68 16.82 4 16 4C15.18 4 14.5 4.68 14.5 5.5V8H9.5C7.58 8 6 9.58 6 11.5V38.5C6 40.44 7.58 42 9.5 42H38.5C40.42 42 42 40.44 42 38.5V11.5C42 9.58 40.42 8 38.5 8ZM9 11.5C9 11.22 9.22 11 9.5 11H38.5C38.78 11 39 11.22 39 11.5V16H9V11.5ZM39 38.5C39 38.78 38.78 39 38.5 39H9.5C9.22 39 9 38.78 9 38.5V19H39V38.5Z" fill="#48C2C4"/>
<path d="M16.02 28C14.9 28 14 27.1 14 26C14 24.9 14.9 24 16 24C17.1 24 18 24.9 18 26C18 27.1 17.12 28 16.02 28Z" fill="#48C2C4"/>
<path d="M24 28C22.9 28 22 27.1 22 26C22 24.9 22.88 24 24 24C25.1 24 26 24.9 26 26C26 27.1 25.12 28 24 28Z" fill="#48C2C4"/>
<path d="M32 28C30.9 28 30 27.1 30 26C30 24.9 30.88 24 32 24C33.1 24 34 24.9 34 26C34 27.1 33.1 28 32 28Z" fill="#48C2C4"/>
<path d="M16.02 35C14.9 35 14 34.1 14 33C14 31.9 14.9 31 16 31C17.1 31 18 31.9 18 33C18 34.1 17.12 35 16.02 35Z" fill="#48C2C4"/>
<path d="M24 35C22.9 35 22 34.1 22 33C22 31.9 22.88 31 24 31C25.1 31 26 31.9 26 33C26 34.1 25.12 35 24 35Z" fill="#48C2C4"/>
</g>
<defs>
<clipPath id="clip0_50_3098">
<rect width="48" height="48" fill="white"/>
</clipPath>
</defs>
</svg>
