<svg width="25" height="25" viewBox="0 0 25 25" fill="none" xmlns="http://www.w3.org/2000/svg">
<path d="M12.6 2.5C10.6222 2.5 8.68877 3.08649 7.04428 4.1853C5.39979 5.28412 4.11806 6.8459 3.36118 8.67317C2.60431 10.5004 2.40628 12.5111 2.79213 14.4509C3.17798 16.3907 4.13039 18.1725 5.52891 19.5711C6.92744 20.9696 8.70927 21.922 10.6491 22.3079C12.5889 22.6937 14.5996 22.4957 16.4268 21.7388C18.2541 20.9819 19.8159 19.7002 20.9147 18.0557C22.0135 16.4112 22.6 14.4778 22.6 12.5C22.6 11.1868 22.3413 9.88642 21.8388 8.67317C21.3362 7.45991 20.5996 6.35752 19.671 5.42893C18.7425 4.50035 17.6401 3.76375 16.4268 3.2612C15.2136 2.75866 13.9132 2.5 12.6 2.5V2.5ZM12.6 20.5C11.0177 20.5 9.47101 20.0308 8.15542 19.1518C6.83982 18.2727 5.81445 17.0233 5.20894 15.5615C4.60344 14.0997 4.44502 12.4911 4.7537 10.9393C5.06238 9.38743 5.82431 7.96197 6.94313 6.84315C8.06195 5.72433 9.48741 4.9624 11.0393 4.65372C12.5911 4.34504 14.1996 4.50346 15.6614 5.10896C17.1233 5.71447 18.3727 6.73984 19.2517 8.05544C20.1308 9.37103 20.6 10.9177 20.6 12.5C20.6 14.6217 19.7571 16.6566 18.2568 18.1569C16.7565 19.6571 14.7217 20.5 12.6 20.5V20.5ZM16.6 11.5H13.6V8.5C13.6 8.23478 13.4946 7.98043 13.3071 7.79289C13.1196 7.60536 12.8652 7.5 12.6 7.5C12.3348 7.5 12.0804 7.60536 11.8929 7.79289C11.7053 7.98043 11.6 8.23478 11.6 8.5V11.5H8.59998C8.33476 11.5 8.08041 11.6054 7.89287 11.7929C7.70534 11.9804 7.59998 12.2348 7.59998 12.5C7.59998 12.7652 7.70534 13.0196 7.89287 13.2071C8.08041 13.3946 8.33476 13.5 8.59998 13.5H11.6V16.5C11.6 16.7652 11.7053 17.0196 11.8929 17.2071C12.0804 17.3946 12.3348 17.5 12.6 17.5C12.8652 17.5 13.1196 17.3946 13.3071 17.2071C13.4946 17.0196 13.6 16.7652 13.6 16.5V13.5H16.6C16.8652 13.5 17.1196 13.3946 17.3071 13.2071C17.4946 13.0196 17.6 12.7652 17.6 12.5C17.6 12.2348 17.4946 11.9804 17.3071 11.7929C17.1196 11.6054 16.8652 11.5 16.6 11.5Z" fill="white"/>
</svg>
