<svg width="24" height="24" viewBox="0 0 24 24" fill="none" xmlns="http://www.w3.org/2000/svg">
<path d="M21.9454 7.88006C21.8985 6.8174 21.7267 6.08683 21.4805 5.45375C21.2265 4.78177 20.8358 4.18017 20.3239 3.68001C19.8238 3.1721 19.2182 2.77742 18.554 2.52744C17.9173 2.28129 17.1905 2.10943 16.1278 2.06258C15.0572 2.01174 14.7174 2 12.002 2C9.2866 2 8.94672 2.01174 7.88006 2.05859C6.8174 2.10544 6.08679 2.27746 5.45391 2.52349C4.78177 2.77742 4.18013 3.16815 3.68001 3.68001C3.1721 4.18017 2.77758 4.78573 2.52744 5.44995C2.28125 6.08683 2.10939 6.81344 2.06254 7.87611C2.01174 8.94672 2 9.2866 2 12.002C2 14.7174 2.01174 15.0573 2.05859 16.1239C2.10544 17.1866 2.27746 17.9172 2.5236 18.5502C2.77758 19.2222 3.1721 19.8238 3.68001 20.3239C4.18013 20.8319 4.78573 21.2265 5.44992 21.4766C6.08679 21.7227 6.8134 21.8946 7.87627 21.9414C8.94273 21.9884 9.28277 22 11.9982 22C14.7136 22 15.0534 21.9884 16.1201 21.9414C17.1828 21.8946 17.9133 21.7227 18.5462 21.4766C19.8904 20.9569 20.953 19.8942 21.4727 18.5502C21.7187 17.9134 21.8907 17.1866 21.9376 16.1239C21.9844 15.0573 21.9962 14.7174 21.9962 12.002C21.9962 9.2866 21.9922 8.94672 21.9454 7.88006ZM20.1443 16.0458C20.1013 17.0225 19.9372 17.55 19.8005 17.9016C19.4644 18.7729 18.7729 19.4644 17.9016 19.8005C17.55 19.9372 17.0187 20.1013 16.0458 20.1442C14.9909 20.1912 14.6745 20.2028 12.006 20.2028C9.33741 20.2028 9.01705 20.1912 7.96597 20.1442C6.98922 20.1013 6.46178 19.9372 6.11015 19.8005C5.67657 19.6402 5.28189 19.3863 4.96154 19.0542C4.62944 18.7299 4.37551 18.3392 4.21523 17.9056C4.07848 17.554 3.91441 17.0225 3.87155 16.0497C3.82455 14.9948 3.81292 14.6783 3.81292 12.0098C3.81292 9.34124 3.82455 9.02089 3.87155 7.96996C3.91441 6.99321 4.07848 6.46577 4.21523 6.11415C4.37551 5.68041 4.62944 5.28588 4.96553 4.96537C5.28968 4.63328 5.68037 4.3793 6.11411 4.21923C6.46573 4.08247 6.99716 3.9184 7.96996 3.87539C9.02484 3.8285 9.3414 3.81676 12.0097 3.81676C14.6822 3.81676 14.9986 3.8285 16.0497 3.87539C17.0265 3.9184 17.5539 4.08247 17.9055 4.21923C18.3392 4.3793 18.7338 4.63328 19.0542 4.96537C19.3863 5.28968 19.6402 5.68041 19.8005 6.11415C19.9372 6.46577 20.1013 6.99705 20.1443 7.96996C20.1912 9.02488 20.2029 9.34124 20.2029 12.0098C20.2029 14.6783 20.1912 14.9909 20.1443 16.0458Z" fill="#2D8DFE"/>
<path d="M12.002 6.86426C9.1656 6.86426 6.86426 9.16544 6.86426 12.002C6.86426 14.8386 9.1656 17.1398 12.002 17.1398C14.8385 17.1398 17.1397 14.8386 17.1397 12.002C17.1397 9.16544 14.8385 6.86426 12.002 6.86426ZM12.002 15.3347C10.1619 15.3347 8.66927 13.8423 8.66927 12.002C8.66927 10.1617 10.1619 8.66927 12.002 8.66927C13.8423 8.66927 15.3347 10.1617 15.3347 12.002C15.3347 13.8423 13.8423 15.3347 12.002 15.3347Z" fill="#2D8DFE"/>
<path d="M18.5425 6.66109C18.5425 7.32344 18.0054 7.8605 17.3429 7.8605C16.6805 7.8605 16.1434 7.32344 16.1434 6.66109C16.1434 5.99858 16.6805 5.46167 17.3429 5.46167C18.0054 5.46167 18.5425 5.99858 18.5425 6.66109Z" fill="#2D8DFE"/>
</svg>
