<svg width="24" height="24" viewBox="0 0 24 24" fill="none" xmlns="http://www.w3.org/2000/svg">
<g clip-path="url(#clip0_13_1517)">
<path d="M8.59408 18.5234H5.74577V9.69531H8.59408V18.5234ZM8.87827 6.88266C8.87827 5.99872 8.13123 5.28125 7.21093 5.28125C6.28714 5.28125 5.542 5.99872 5.542 6.88266C5.542 7.76691 6.28714 8.48438 7.21093 8.48438C8.13123 8.48438 8.87827 7.76691 8.87827 6.88266ZM19.2546 13.6666C19.2546 11.2967 18.7331 9.53906 15.8493 9.53906C14.4636 9.53906 13.5335 10.2043 13.1538 10.8962H13.1511V9.69531H10.3841V18.5234H13.1511V14.1402C13.1511 12.9923 13.4554 11.8802 14.9376 11.8802C16.3996 11.8802 16.4469 13.1929 16.4469 14.2131V18.5234H19.2546V13.6666ZM22.9167 19.6562V4.34375C22.9167 3.05133 21.8215 2 20.4753 2H4.52475C3.17848 2 2.08334 3.05133 2.08334 4.34375V19.6562C2.08334 20.9487 3.17848 22 4.52475 22H20.4753C21.8215 22 22.9167 20.9487 22.9167 19.6562ZM20.4753 3.5625C20.924 3.5625 21.2891 3.91299 21.2891 4.34375V19.6562C21.2891 20.087 20.924 20.4375 20.4753 20.4375H4.52475C4.07605 20.4375 3.71095 20.087 3.71095 19.6562V4.34375C3.71095 3.91299 4.07605 3.5625 4.52475 3.5625H20.4753Z" fill="#2D8DFE"/>
</g>
<defs>
<clipPath id="clip0_13_1517">
<rect width="20.8333" height="20" fill="white" transform="translate(2.08334 2)"/>
</clipPath>
</defs>
</svg>
