<svg width="24" height="24" viewBox="0 0 24 24" fill="none" xmlns="http://www.w3.org/2000/svg">
<path d="M2 7.28571L12 11.5714L22 7.28571M6.57143 20.1429H17.4286C19.0287 20.1429 19.8288 20.1429 20.44 19.8314C20.9776 19.5575 21.4147 19.1204 21.6886 18.5828C22 17.9717 22 17.1716 22 15.5714V7.57143C22 5.97128 22 5.1712 21.6886 4.56003C21.4147 4.02242 20.9776 3.58533 20.44 3.31141C19.8288 3 19.0287 3 17.4286 3H6.57143C4.97128 3 4.1712 3 3.56003 3.31141C3.02242 3.58533 2.58533 4.02242 2.31141 4.56003C2 5.1712 2 5.97128 2 7.57143V15.5714C2 17.1716 2 17.9717 2.31141 18.5828C2.58533 19.1204 3.02242 19.5575 3.56003 19.8314C4.1712 20.1429 4.97128 20.1429 6.57143 20.1429Z" stroke="#2D8DFE" stroke-width="2" stroke-linecap="square" stroke-linejoin="round"/>
</svg>
