<svg width="24" height="24" viewBox="0 0 24 24" fill="none" xmlns="http://www.w3.org/2000/svg">
<path d="M8.96555 7.34826C9.14209 7.35548 9.3374 7.36376 9.52297 7.77625C9.64979 8.05824 9.86317 8.58395 10.0332 9.0029C10.1585 9.31162 10.2603 9.56237 10.2866 9.61492C10.3485 9.73879 10.3898 9.88343 10.3072 10.0488C10.2949 10.0736 10.2834 10.0969 10.2725 10.1192C10.2104 10.2459 10.1648 10.3389 10.0598 10.4619C10.0186 10.51 9.976 10.5618 9.93341 10.6136C9.84791 10.7176 9.76239 10.8216 9.68815 10.8957C9.56389 11.0192 9.43484 11.1534 9.57934 11.4011C9.72389 11.6491 10.221 12.4599 10.9574 13.1164C11.7485 13.8218 12.4357 14.1201 12.7847 14.2716C12.8532 14.3013 12.9087 14.3254 12.9494 14.3458C13.1971 14.4697 13.3416 14.4491 13.4861 14.2835C13.6307 14.1183 14.1051 13.5605 14.2703 13.3128C14.4354 13.0648 14.6006 13.1061 14.8277 13.1887C15.0548 13.2713 16.2726 13.8706 16.5203 13.9945C16.5686 14.0186 16.6138 14.0404 16.6556 14.0606C16.8285 14.1441 16.9453 14.2004 16.9951 14.2835C17.057 14.3871 17.057 14.8829 16.8506 15.4612C16.6442 16.0396 15.6328 16.5974 15.1786 16.6387C15.1349 16.6427 15.0915 16.6478 15.0468 16.6531C14.6271 16.7024 14.0973 16.7647 12.2062 16.019C9.8792 15.1013 8.34489 12.8273 8.02791 12.3575C8.00192 12.319 7.98411 12.2926 7.97472 12.28L7.97196 12.2764C7.8384 12.0979 6.96327 10.9283 6.96327 9.71816C6.96327 8.57741 7.524 7.97945 7.78199 7.70433C7.79962 7.68552 7.81584 7.66823 7.83036 7.65238C8.05729 7.40449 8.32571 7.34246 8.49084 7.34246C8.49989 7.34246 8.50894 7.34246 8.51799 7.34246C8.67394 7.34244 8.82911 7.34242 8.96555 7.34826Z" fill="white"/>
<path fill-rule="evenodd" clip-rule="evenodd" d="M3.42 16.86C2.54 15.36 2.08 13.66 2.08 11.9C2.08 6.44 6.54 2 12 2C14.66 2 17.14 3.04 19.02 4.9C20.88 6.78 21.92 9.26 21.92 11.92C21.92 17.38 17.46 21.82 12 21.82C10.34 21.82 8.7 21.42 7.26 20.62L2 22L3.42 16.86ZM5.02 16.3L5.22 16.6L4.38 19.64L7.5 18.82L7.8 19C9.06 19.76 10.52 20.16 12 20.16C16.54 20.16 20.24 16.46 20.24 11.92C20.24 9.72 19.38 7.64 17.82 6.08C16.28 4.54 14.2 3.68 12 3.68C7.46 3.68 3.76 7.36 3.76 11.92C3.76 13.46 4.2 14.98 5.02 16.3Z" fill="white"/>
</svg>
